<?xml version="1.0" encoding="UTF-8" standalone="no"?>
<svg
   xmlns:osb="http://www.openswatchbook.org/uri/2009/osb"
   xmlns:dc="http://purl.org/dc/elements/1.1/"
   xmlns:cc="http://creativecommons.org/ns#"
   xmlns:rdf="http://www.w3.org/1999/02/22-rdf-syntax-ns#"
   xmlns:svg="http://www.w3.org/2000/svg"
   xmlns="http://www.w3.org/2000/svg"
   xmlns:sodipodi="http://sodipodi.sourceforge.net/DTD/sodipodi-0.dtd"
   xmlns:inkscape="http://www.inkscape.org/namespaces/inkscape"
   inkscape:export-ydpi="96"
   inkscape:export-xdpi="96"
   inkscape:export-filename="C:\Users\02069823\white-white.png"
   sodipodi:docname="disegno.svg"
   inkscape:version="1.0 (4035a4fb49, 2020-05-01)"
   id="svg28"
   version="1.1"
   viewBox="0 0 1200 1200"
   height="1200mm"
   width="1200mm">
  <defs
     id="defs22">
    <rect
       x="500.70344"
       y="469.92249"
       width="1116.3224"
       height="510.96376"
       id="rect4373" />
    <linearGradient
       osb:paint="solid"
       id="linearGradient3537">
      <stop
         id="stop3535"
         offset="0"
         style="stop-color:#0000ff;stop-opacity:1;" />
    </linearGradient>
  </defs>
  <sodipodi:namedview
     inkscape:window-maximized="1"
     inkscape:window-y="-8"
     inkscape:window-x="-8"
     inkscape:window-height="1017"
     inkscape:window-width="1920"
     inkscape:snap-page="true"
     inkscape:snap-grids="true"
     inkscape:showpageshadow="false"
     showgrid="false"
     inkscape:document-rotation="0"
     inkscape:current-layer="g4685"
     inkscape:document-units="mm"
     inkscape:cy="2142.6855"
     inkscape:cx="773.78844"
     inkscape:zoom="0.15004828"
     inkscape:pageshadow="2"
     inkscape:pageopacity="0.0"
     borderopacity="1.0"
     bordercolor="#666666"
     pagecolor="#ffffff"
     id="base"
     inkscape:lockguides="true">
    <inkscape:grid
       type="xygrid"
       id="grid4413" />
  </sodipodi:namedview>
  <metadata
     id="metadata25">
    <rdf:RDF>
      <cc:Work
         rdf:about="">
        <dc:format>image/svg+xml</dc:format>
        <dc:type
           rdf:resource="http://purl.org/dc/dcmitype/StillImage" />
        <dc:title />
      </cc:Work>
    </rdf:RDF>
  </metadata>
  <g
     inkscape:groupmode="layer"
     id="layer8"
     inkscape:label="sfondo blu, icona colori palette"
     style="display:none"
     sodipodi:insensitive="true">
    <g
       inkscape:groupmode="layer"
       id="layer9"
       inkscape:label="background"
       style="display:inline"
       sodipodi:insensitive="true">
      <rect
         y="0"
         x="0"
         height="1200"
         width="1200"
         id="rect4459-5"
         style="display:inline;opacity:1;fill:#004691;fill-opacity:1;stroke:none;stroke-width:0;stroke-miterlimit:4;stroke-dasharray:none;stroke-opacity:1" />
    </g>
    <g
       inkscape:groupmode="layer"
       id="layer11"
       inkscape:label="spicchi"
       style="display:inline"
       sodipodi:insensitive="true">
      <path
         id="path4387-7"
         style="font-style:normal;font-weight:normal;font-size:50.8px;line-height:1.25;font-family:sans-serif;display:inline;fill:#82b9e6;fill-opacity:1;stroke:none;stroke-width:0;stroke-miterlimit:4;stroke-dasharray:none;stroke-opacity:1"
         d="M 574.99981,625 175,625.3715 A 399.86873,400.51654 0 0 0 574.86757,1025 a 399.86873,400.51654 0 0 0 0.13224,0 z" />
      <path
         id="path4405-3"
         style="font-style:normal;font-weight:normal;font-size:50.8px;line-height:1.25;font-family:sans-serif;display:inline;fill:#82c85a;fill-opacity:1;stroke:none;stroke-width:0;stroke-miterlimit:4;stroke-dasharray:none;stroke-opacity:1"
         d="M 574.8676,175.00001 A 399.86773,399.11536 0 0 0 175,574.11525 a 399.86773,399.11536 0 0 0 0.001,0.88474 l 399.99881,-0.37017 V 175.00001 a 399.86773,399.11536 0 0 0 -0.13224,0 z" />
      <path
         id="path4397-7"
         style="font-style:normal;font-weight:normal;font-size:50.8px;line-height:1.25;font-family:sans-serif;display:inline;fill:#fbd872;fill-opacity:1;stroke:none;stroke-width:0;stroke-miterlimit:4;stroke-dasharray:none;stroke-opacity:1"
         d="M 1024.9996,625.54229 624.99979,625 v 400 A 400.13276,400.15935 0 0 0 1024.9996,625.54229 Z" />
      <path
         id="path4410-4"
         style="font-style:normal;font-weight:normal;font-size:50.8px;line-height:1.25;font-family:sans-serif;display:inline;fill:#eb0028;fill-opacity:1;stroke:none;stroke-width:0;stroke-miterlimit:4;stroke-dasharray:none;stroke-opacity:1"
         d="m 624.99979,177.00764 v 400.15903 l 399.86691,0.54207 a 399.99981,399.99999 0 0 0 0,-0.70125 399.99981,399.99999 0 0 0 -399.86691,-399.99985 z" />
    </g>
    <g
       inkscape:groupmode="layer"
       id="layer12"
       inkscape:label="centro e barra"
       style="display:inline"
       sodipodi:insensitive="true">
      <ellipse
         ry="225.00002"
         rx="224.99989"
         style="font-style:normal;font-weight:normal;font-size:50.8px;line-height:1.25;font-family:sans-serif;display:inline;fill:#004691;fill-opacity:1;stroke:none;stroke-width:0;stroke-miterlimit:4;stroke-dasharray:none;stroke-opacity:1"
         id="path4389-6"
         cx="601.04108"
         cy="605.14539" />
      <rect
         ry="74.999977"
         transform="rotate(-46.557447)"
         style="display:inline;fill:#fbd872;fill-opacity:1;stroke:none;stroke-width:0;stroke-miterlimit:4;stroke-dasharray:none;stroke-opacity:1"
         id="rect4419-0-8"
         width="149.99997"
         height="599.99982"
         x="-98.686684"
         y="816.83862" />
    </g>
  </g>
  <g
     style="display:inline"
     inkscape:label="sfondo bianco, icona colori palette"
     id="g4663"
     inkscape:groupmode="layer"
     sodipodi:insensitive="true">
    <g
       style="display:inline"
       inkscape:label="background"
       id="g4645"
       inkscape:groupmode="layer"
       sodipodi:insensitive="true">
      <rect
         style="display:inline;opacity:1;fill:#ffffff;fill-opacity:1;stroke:none;stroke-width:0;stroke-miterlimit:4;stroke-dasharray:none;stroke-opacity:1"
         id="rect4643"
         width="1200"
         height="1200"
         x="0"
         y="0" />
    </g>
    <g
       sodipodi:insensitive="true"
       style="display:inline"
       inkscape:label="spicchi"
       id="g4655"
       inkscape:groupmode="layer">
      <path
         d="M 574.99981,625 175,625.3715 A 399.86873,400.51654 0 0 0 574.86757,1025 a 399.86873,400.51654 0 0 0 0.13224,0 z"
         style="font-style:normal;font-weight:normal;font-size:50.8px;line-height:1.25;font-family:sans-serif;display:inline;fill:#82b9e6;fill-opacity:1;stroke:none;stroke-width:0;stroke-miterlimit:4;stroke-dasharray:none;stroke-opacity:1"
         id="path4647" />
      <path
         d="M 574.8676,175.00001 A 399.86773,399.11536 0 0 0 175,574.11525 a 399.86773,399.11536 0 0 0 0.001,0.88474 l 399.99881,-0.37017 V 175.00001 a 399.86773,399.11536 0 0 0 -0.13224,0 z"
         style="font-style:normal;font-weight:normal;font-size:50.8px;line-height:1.25;font-family:sans-serif;display:inline;fill:#82c85a;fill-opacity:1;stroke:none;stroke-width:0;stroke-miterlimit:4;stroke-dasharray:none;stroke-opacity:1"
         id="path4649" />
      <path
         d="M 1024.9996,625.54229 624.99979,625 v 400 A 400.13276,400.15935 0 0 0 1024.9996,625.54229 Z"
         style="font-style:normal;font-weight:normal;font-size:50.8px;line-height:1.25;font-family:sans-serif;display:inline;fill:#fbd872;fill-opacity:1;stroke:none;stroke-width:0;stroke-miterlimit:4;stroke-dasharray:none;stroke-opacity:1"
         id="path4651" />
      <path
         d="m 624.99979,177.00764 v 400.15903 l 399.86691,0.54207 a 399.99981,399.99999 0 0 0 0,-0.70125 399.99981,399.99999 0 0 0 -399.86691,-399.99985 z"
         style="font-style:normal;font-weight:normal;font-size:50.8px;line-height:1.25;font-family:sans-serif;display:inline;fill:#eb0028;fill-opacity:1;stroke:none;stroke-width:0;stroke-miterlimit:4;stroke-dasharray:none;stroke-opacity:1"
         id="path4653" />
    </g>
    <g
       style="display:inline"
       inkscape:label="centro e barra"
       id="g4661"
       inkscape:groupmode="layer"
       sodipodi:insensitive="true">
      <ellipse
         cy="605.14539"
         cx="601.04108"
         id="ellipse4657"
         style="font-style:normal;font-weight:normal;font-size:50.8px;line-height:1.25;font-family:sans-serif;display:inline;fill:#ffffff;fill-opacity:1;stroke:none;stroke-width:0;stroke-miterlimit:4;stroke-dasharray:none;stroke-opacity:1"
         rx="224.99989"
         ry="225.00002" />
      <rect
         y="816.83862"
         x="-98.686684"
         height="599.99982"
         width="149.99997"
         id="rect4659"
         style="display:inline;fill:#fbd872;fill-opacity:1;stroke:none;stroke-width:0;stroke-miterlimit:4;stroke-dasharray:none;stroke-opacity:1"
         transform="rotate(-46.557447)"
         ry="74.999977" />
    </g>
  </g>
  <g
     inkscape:groupmode="layer"
     id="layer13"
     inkscape:label="sfondo blu, icona bianca"
     style="display:none"
     sodipodi:insensitive="true">
    <g
       style="display:inline"
       inkscape:label="background"
       id="g4558"
       inkscape:groupmode="layer"
       sodipodi:insensitive="true">
      <rect
         style="display:inline;opacity:1;fill:#004691;fill-opacity:1;stroke:none;stroke-width:0;stroke-miterlimit:4;stroke-dasharray:none;stroke-opacity:1"
         id="rect4556"
         width="1200"
         height="1200"
         x="0"
         y="0" />
    </g>
    <g
       style="display:inline;opacity:1"
       inkscape:label="spicchi"
       id="g4554"
       inkscape:groupmode="layer"
       sodipodi:insensitive="true">
      <path
         d="M 574.99981,625 175,625.3715 A 399.86873,400.51654 0 0 0 574.86757,1025 a 399.86873,400.51654 0 0 0 0.13224,0 z"
         style="font-style:normal;font-weight:normal;font-size:50.8px;line-height:1.25;font-family:sans-serif;display:inline;fill:#ffffff;fill-opacity:1;stroke:none;stroke-width:0;stroke-miterlimit:4;stroke-dasharray:none;stroke-opacity:1"
         id="path4546" />
      <path
         d="M 574.8676,175.00001 A 399.86773,399.11536 0 0 0 175,574.11525 a 399.86773,399.11536 0 0 0 0.001,0.88474 l 399.99881,-0.37017 V 175.00001 a 399.86773,399.11536 0 0 0 -0.13224,0 z"
         style="font-style:normal;font-weight:normal;font-size:50.8px;line-height:1.25;font-family:sans-serif;display:inline;fill:#ffffff;fill-opacity:1;stroke:none;stroke-width:0;stroke-miterlimit:4;stroke-dasharray:none;stroke-opacity:1"
         id="path4548" />
      <path
         d="M 1024.9996,625.54229 624.99979,625 v 400 A 400.13276,400.15935 0 0 0 1024.9996,625.54229 Z"
         style="font-style:normal;font-weight:normal;font-size:50.8px;line-height:1.25;font-family:sans-serif;display:inline;fill:#eb0028;fill-opacity:1;stroke:none;stroke-width:0;stroke-miterlimit:4;stroke-dasharray:none;stroke-opacity:1"
         id="path4550" />
      <path
         d="m 624.99979,177.00764 v 400.15903 l 399.86691,0.54207 a 399.99981,399.99999 0 0 0 0,-0.70125 399.99981,399.99999 0 0 0 -399.86691,-399.99985 z"
         style="font-style:normal;font-weight:normal;font-size:50.8px;line-height:1.25;font-family:sans-serif;display:inline;fill:#ffffff;fill-opacity:1;stroke:none;stroke-width:0;stroke-miterlimit:4;stroke-dasharray:none;stroke-opacity:1"
         id="path4552" />
    </g>
    <g
       style="display:inline"
       inkscape:label="centro e barra"
       id="g4541"
       inkscape:groupmode="layer"
       sodipodi:insensitive="true">
      <ellipse
         cy="605.14539"
         cx="601.04108"
         id="ellipse4537"
         style="font-style:normal;font-weight:normal;font-size:50.8px;line-height:1.25;font-family:sans-serif;display:inline;fill:#004691;fill-opacity:1;stroke:none;stroke-width:0;stroke-miterlimit:4;stroke-dasharray:none;stroke-opacity:1"
         rx="224.99989"
         ry="225.00002" />
      <rect
         y="816.83862"
         x="-98.686684"
         height="599.99982"
         width="149.99997"
         id="rect4539"
         style="display:inline;fill:#eb0028;fill-opacity:1;stroke:none;stroke-width:0;stroke-miterlimit:4;stroke-dasharray:none;stroke-opacity:1"
         transform="rotate(-46.557447)"
         ry="74.999977" />
    </g>
  </g>
  <g
     style="display:none"
     inkscape:label="sfondo bianco, icona bianca"
     id="g4685"
     inkscape:groupmode="layer"
     sodipodi:insensitive="true">
    <g
       inkscape:groupmode="layer"
       id="g4667"
       inkscape:label="background"
       style="display:none">
      <rect
         y="0"
         x="0"
         height="1200"
         width="1200"
         id="rect4665"
         style="display:inline;opacity:1;fill:#004691;fill-opacity:1;stroke:none;stroke-width:0;stroke-miterlimit:4;stroke-dasharray:none;stroke-opacity:1" />
    </g>
    <g
       inkscape:groupmode="layer"
       id="g4677"
       inkscape:label="spicchi"
       style="display:inline;opacity:1">
      <path
         id="path4669"
         style="font-style:normal;font-weight:normal;font-size:50.8px;line-height:1.25;font-family:sans-serif;display:inline;fill:#ffffff;fill-opacity:1;stroke:#004691;stroke-width:18.8976;stroke-miterlimit:4;stroke-dasharray:none;stroke-opacity:1"
         d="m 1431.1055,2362.8945 -769.68753,0.7149 a 1511.3149,1513.7633 0 0 0 1511.31053,1510.4062 1511.3149,1513.7633 0 0 0 0.5,0 v -752.832 a 850.39329,850.39378 0 0 1 -742.123,-758.2891 z"
         transform="scale(0.26458333)" />
      <path
         id="path4671"
         style="font-style:normal;font-weight:normal;font-size:50.8px;line-height:1.25;font-family:sans-serif;display:inline;fill:#ffffff;fill-opacity:1;stroke:#004691;stroke-width:18.8976;stroke-miterlimit:4;stroke-dasharray:none;stroke-opacity:1"
         d="M 2172.7285,661.41797 A 1511.3111,1508.4675 0 0 0 661.41797,2169.8848 a 1511.3111,1508.4675 0 0 0 0.004,3.3437 l 771.81443,-0.7148 a 850.39329,850.39378 0 0 1 739.9922,-739.3653 V 661.41797 a 1511.3111,1508.4675 0 0 0 -0.5,0 z"
         transform="scale(0.26458333)" />
      <path
         id="path4673"
         style="font-style:normal;font-weight:normal;font-size:50.8px;line-height:1.25;font-family:sans-serif;display:inline;fill:#eb0028;fill-opacity:1;stroke:none;stroke-width:0;stroke-miterlimit:4;stroke-dasharray:none;stroke-opacity:1"
         d="m 3123.1914,2363.2363 a 850.39329,850.39378 0 0 1 -760.9883,760.0606 v 750.7187 A 1512.3128,1512.4133 0 0 0 3874.0137,2364.2539 Z"
         transform="scale(0.26458333)" />
      <path
         id="path4675"
         style="font-style:normal;font-weight:normal;font-size:50.8px;line-height:1.25;font-family:sans-serif;display:inline;fill:#ffffff;fill-opacity:1;stroke:#004691;stroke-width:18.8976;stroke-miterlimit:4;stroke-dasharray:none;stroke-opacity:1"
         d="m 2362.2031,669.00586 v 772.59964 a 850.39329,850.39378 0 0 1 753.3692,740.834 l 757.9394,1.0273 a 1511.8103,1511.811 0 0 0 0,-2.6504 A 1511.8103,1511.811 0 0 0 2362.2031,669.00586 Z"
         transform="scale(0.26458333)" />
    </g>
    <g
       inkscape:groupmode="layer"
       id="g4683"
       inkscape:label="centro e barra"
       style="display:inline">
      <rect
         ry="74.999977"
         transform="rotate(-46.557447)"
         style="display:inline;fill:#eb0028;fill-opacity:1;stroke:none;stroke-width:0;stroke-miterlimit:4;stroke-dasharray:none;stroke-opacity:1"
         id="rect4681"
         width="149.99997"
         height="599.99982"
         x="-98.686684"
         y="816.83862" />
    </g>
  </g>
  <g
     inkscape:groupmode="layer"
     id="layer14"
     inkscape:label="sfondo bianco, google style"
     style="display:none"
     sodipodi:insensitive="true">
    <g
       inkscape:groupmode="layer"
       id="g4586"
       inkscape:label="background"
       style="display:inline">
      <rect
         y="0"
         x="0"
         height="1200"
         width="1200"
         id="rect4584"
         style="display:inline;opacity:1;fill:#ffffff;fill-opacity:1;stroke:none;stroke-width:0;stroke-miterlimit:4;stroke-dasharray:none;stroke-opacity:1" />
    </g>
    <g
       inkscape:groupmode="layer"
       id="g4582"
       inkscape:label="spicchi"
       style="display:inline;opacity:1">
      <path
         id="path4574"
         style="font-style:normal;font-weight:normal;font-size:50.8px;line-height:1.25;font-family:sans-serif;display:inline;fill:#fab932;fill-opacity:1;stroke:none;stroke-width:0;stroke-miterlimit:4;stroke-dasharray:none;stroke-opacity:1"
         d="M 574.99981,625 175,625.3715 A 399.86873,400.51654 0 0 0 574.86757,1025 a 399.86873,400.51654 0 0 0 0.13224,0 z" />
      <path
         id="path4576"
         style="font-style:normal;font-weight:normal;font-size:50.8px;line-height:1.25;font-family:sans-serif;display:inline;fill:#eb0028;fill-opacity:1;stroke:none;stroke-width:0;stroke-miterlimit:4;stroke-dasharray:none;stroke-opacity:1"
         d="M 574.8676,175.00001 A 399.86773,399.11536 0 0 0 175,574.11525 a 399.86773,399.11536 0 0 0 0.001,0.88474 l 399.99881,-0.37017 V 175.00001 a 399.86773,399.11536 0 0 0 -0.13224,0 z" />
      <path
         id="path4578"
         style="font-style:normal;font-weight:normal;font-size:50.8px;line-height:1.25;font-family:sans-serif;display:inline;fill:#008c55;fill-opacity:1;stroke:none;stroke-width:0;stroke-miterlimit:4;stroke-dasharray:none;stroke-opacity:1"
         d="M 1024.9996,625.54229 624.99979,625 v 400 A 400.13276,400.15935 0 0 0 1024.9996,625.54229 Z" />
      <path
         id="path4580"
         style="font-style:normal;font-weight:normal;font-size:50.8px;line-height:1.25;font-family:sans-serif;display:inline;fill:#004691;fill-opacity:1;stroke:none;stroke-width:0;stroke-miterlimit:4;stroke-dasharray:none;stroke-opacity:1"
         d="m 624.99979,177.00764 v 400.15903 l 399.86691,0.54207 a 399.99981,399.99999 0 0 0 0,-0.70125 399.99981,399.99999 0 0 0 -399.86691,-399.99985 z" />
    </g>
    <g
       inkscape:groupmode="layer"
       id="g4572"
       inkscape:label="centro e barra"
       style="display:inline">
      <ellipse
         ry="225.00002"
         rx="224.99989"
         style="font-style:normal;font-weight:normal;font-size:50.8px;line-height:1.25;font-family:sans-serif;display:inline;fill:#ffffff;fill-opacity:1;stroke:none;stroke-width:0;stroke-miterlimit:4;stroke-dasharray:none;stroke-opacity:1"
         id="ellipse4568"
         cx="601.04108"
         cy="605.14539" />
      <rect
         ry="74.999977"
         transform="rotate(-46.557447)"
         style="display:inline;fill:#008c55;fill-opacity:1;stroke:none;stroke-width:0;stroke-miterlimit:4;stroke-dasharray:none;stroke-opacity:1"
         id="rect4570"
         width="149.99997"
         height="599.99982"
         x="-98.686684"
         y="816.83862" />
    </g>
  </g>
  <g
     inkscape:groupmode="layer"
     id="layer15"
     inkscape:label="sfondo bianco, colori primari"
     style="display:none"
     sodipodi:insensitive="true">
    <g
       style="display:inline"
       inkscape:label="background copia"
       id="g4624"
       inkscape:groupmode="layer"
       sodipodi:insensitive="true">
      <rect
         style="display:inline;opacity:1;fill:#ffffff;fill-opacity:1;stroke:none;stroke-width:0;stroke-miterlimit:4;stroke-dasharray:none;stroke-opacity:1"
         id="rect4622"
         width="1200"
         height="1200"
         x="0"
         y="0" />
    </g>
    <g
       style="display:inline"
       inkscape:label="spicchi copia"
       id="g4620"
       inkscape:groupmode="layer"
       sodipodi:insensitive="true">
      <path
         d="M 574.99981,625 175,625.3715 A 399.86873,400.51654 0 0 0 574.86757,1025 a 399.86873,400.51654 0 0 0 0.13224,0 z"
         style="font-style:normal;font-weight:normal;font-size:50.8px;line-height:1.25;font-family:sans-serif;display:inline;fill:#004691;fill-opacity:1;stroke:none;stroke-width:0;stroke-miterlimit:4;stroke-dasharray:none;stroke-opacity:1"
         id="path4612" />
      <path
         d="M 574.8676,175.00001 A 399.86773,399.11536 0 0 0 175,574.11525 a 399.86773,399.11536 0 0 0 0.001,0.88474 l 399.99881,-0.37017 V 175.00001 a 399.86773,399.11536 0 0 0 -0.13224,0 z"
         style="font-style:normal;font-weight:normal;font-size:50.8px;line-height:1.25;font-family:sans-serif;display:inline;fill:#eb0028;fill-opacity:1;stroke:none;stroke-width:0;stroke-miterlimit:4;stroke-dasharray:none;stroke-opacity:1"
         id="path4614" />
      <path
         d="M 1024.9996,625.54229 624.99979,625 v 400 A 400.13276,400.15935 0 0 0 1024.9996,625.54229 Z"
         style="font-style:normal;font-weight:normal;font-size:50.8px;line-height:1.25;font-family:sans-serif;display:inline;fill:#eb0028;fill-opacity:1;stroke:none;stroke-width:0;stroke-miterlimit:4;stroke-dasharray:none;stroke-opacity:1"
         id="path4616" />
      <path
         d="m 624.99979,177.00764 v 400.15903 l 399.86691,0.54207 a 399.99981,399.99999 0 0 0 0,-0.70125 399.99981,399.99999 0 0 0 -399.86691,-399.99985 z"
         style="font-style:normal;font-weight:normal;font-size:50.8px;line-height:1.25;font-family:sans-serif;display:inline;fill:#004691;fill-opacity:1;stroke:none;stroke-width:0;stroke-miterlimit:4;stroke-dasharray:none;stroke-opacity:1"
         id="path4618" />
    </g>
    <g
       style="display:inline"
       inkscape:label="centro e barra copia"
       id="g4610"
       inkscape:groupmode="layer"
       sodipodi:insensitive="true">
      <ellipse
         cy="605.14539"
         cx="601.04108"
         id="ellipse4606"
         style="font-style:normal;font-weight:normal;font-size:50.8px;line-height:1.25;font-family:sans-serif;display:inline;fill:#ffffff;fill-opacity:1;stroke:none;stroke-width:0;stroke-miterlimit:4;stroke-dasharray:none;stroke-opacity:1"
         rx="224.99989"
         ry="225.00002" />
      <rect
         y="816.83862"
         x="-98.686684"
         height="599.99982"
         width="149.99997"
         id="rect4608"
         style="display:inline;fill:#eb0028;fill-opacity:1;stroke:none;stroke-width:0;stroke-miterlimit:4;stroke-dasharray:none;stroke-opacity:1"
         transform="rotate(-46.557447)"
         ry="74.999977" />
    </g>
  </g>
</svg>
